<mxfile host="app.diagrams.net" modified="2024-05-27T11:59:28.072Z" agent="Mozilla/5.0 (X11; Linux x86_64) AppleWebKit/537.36 (KHTML, like Gecko) Chrome/122.0.0.0 Safari/537.36" version="24.4.4" etag="JNlSQOvL0rN_Z2TT7mHS" type="github">
  <diagram name="第 1 页" id="jT_orwT_YSuxAYqMRvVR">
    <mxGraphModel>
      <root>
        <mxCell id="0" />
        <mxCell id="1" parent="0" />
      </root>
    </mxGraphModel>
  </diagram>
</mxfile>
